<svg xmlns="http://www.w3.org/2000/svg" width="47.929" height="47.19" viewBox="0 0 47.929 47.19">
  <path id="icons8-github" d="M26.964,3a23.95,23.95,0,0,0-5.807,47.19,3.5,3.5,0,0,1-.184-1.164v-4.1H17.962a4.17,4.17,0,0,1-3.8-2.015c-.785-1.456-.921-3.683-2.866-5.044-.577-.453-.138-.971.527-.9a6.28,6.28,0,0,1,3.205,2.44c.955,1.252,1.4,1.536,3.187,1.536a22.9,22.9,0,0,0,3.377-.242,7.518,7.518,0,0,1,3.171-3.918c-7.98-.821-11.788-4.791-11.788-10.181a9.8,9.8,0,0,1,2.668-6.456c-.551-1.877-1.244-5.705.212-7.163a8.341,8.341,0,0,1,6.283,2.958,18.12,18.12,0,0,1,11.655,0,8.336,8.336,0,0,1,6.287-2.962c1.462,1.46.761,5.3.2,7.177A9.791,9.791,0,0,1,42.93,26.6c0,5.386-3.8,9.354-11.77,10.179,2.193,1.144,3.792,4.36,3.792,6.782v5.46a3.513,3.513,0,0,1-.07.535A23.951,23.951,0,0,0,26.964,3Z" transform="translate(-3 -3)" fill="#313131"/>
</svg>
