<svg id="icons8-facebook" xmlns="http://www.w3.org/2000/svg" width="47.929" height="47.928" viewBox="0 0 47.929 47.928">
  <path id="Path_1" data-name="Path 1" d="M28.964,5A23.964,23.964,0,1,0,52.929,28.964,23.964,23.964,0,0,0,28.964,5Z" transform="translate(-5 -5)" fill="#313131"/>
  <path id="Path_2" data-name="Path 2" d="M27.844,31.077h5.535l.869-5.623H27.843V22.381c0-2.336.763-4.407,2.948-4.407H34.3V13.067a29.826,29.826,0,0,0-4.387-.266c-5.148,0-8.166,2.719-8.166,8.912v3.741H16.457v5.623h5.292V46.533a21.434,21.434,0,0,0,3.2.265,21.528,21.528,0,0,0,2.9-.218Z" transform="translate(-2.078 1.131)" fill="#fff"/>
</svg>
