<svg id="surface6522687" xmlns="http://www.w3.org/2000/svg" width="47.588" height="47.588" viewBox="0 0 47.588 47.588">
  <path id="Path_7" data-name="Path 7" d="M23.794,47.588A23.794,23.794,0,1,1,47.588,23.794,23.8,23.8,0,0,1,23.794,47.588Zm0,0" transform="translate(0 0)" fill="#313131"/>
  <g id="Group_63" data-name="Group 63" transform="translate(9.586 13.247)">
    <path id="Path_8" data-name="Path 8" d="M9.562,32.958h24.1a2.281,2.281,0,0,0,2.28-2.28V13.741a2.281,2.281,0,0,0-2.28-2.28H9.562a2.281,2.281,0,0,0-2.28,2.28V30.678A2.281,2.281,0,0,0,9.562,32.958Zm0,0" transform="translate(-7.281 -11.461)" fill="#313131"/>
    <path id="Path_9" data-name="Path 9" d="M14.21,20.988h4.764a1.011,1.011,0,0,0,1.011-1.011V12.472a1.011,1.011,0,0,0-1.011-1.011H8.292a1.011,1.011,0,0,0-1.011,1.011Zm0,0" transform="translate(0.699 -5.476)" fill="#313131"/>
    <path id="Path_10" data-name="Path 10" d="M10.887,33.392H34.179a2.281,2.281,0,0,0,2.28-2.28V14.5Zm0,0" transform="translate(-7.796 -11.895)" fill="#313131"/>
    <path id="Path_11" data-name="Path 11" d="M24.571,33.392H35.484a2.281,2.281,0,0,0,2.28-2.28V14.5L20.027,27.606Zm0,0" transform="translate(-9.101 -11.895)" fill="#313131"/>
    <path id="Path_12" data-name="Path 12" d="M33.664,12.976H9.562c-1.259,0-2.28-.281-2.28.978V30.89a2.281,2.281,0,0,0,2.28,2.28h.974V14.6H32.689V33.171h.974a2.281,2.281,0,0,0,2.28-2.28V13.954C35.944,12.695,34.923,12.976,33.664,12.976Zm0,0" transform="translate(-7.281 -11.674)" fill="#fff"/>
    <path id="Path_13" data-name="Path 13" d="M33.664,11.461H9.562a2.268,2.268,0,0,0-2.28,2.28c0,.784.988,1.47.988,1.47l13.344,9.446,13.344-9.446s.988-.686.988-1.47A2.268,2.268,0,0,0,33.664,11.461Zm0,0" transform="translate(-7.281 -11.461)" fill="#313131"/>
    <path id="Path_14" data-name="Path 14" d="M34.153,11.523l-12.54,8.74-12.54-8.74A2.258,2.258,0,0,0,7.281,13.75c0,.784.988,1.47.988,1.47l13.344,9.446L34.956,15.22s.988-.686.988-1.47A2.258,2.258,0,0,0,34.153,11.523Zm0,0" transform="translate(-7.281 -11.47)" fill="#fff"/>
  </g>
</svg>
