<svg id="icons8-linkedin-circled" xmlns="http://www.w3.org/2000/svg" width="47.929" height="47.929" viewBox="0 0 47.929 47.929">
  <path id="Path_3" data-name="Path 3" d="M27.964,4A23.964,23.964,0,1,0,51.929,27.964,23.964,23.964,0,0,0,27.964,4Z" transform="translate(-4 -4)" fill="#313131"/>
  <path id="Path_4" data-name="Path 4" d="M14,21.216h5.478V41.757H14Zm2.722-2.739h-.03A2.622,2.622,0,0,1,14,15.737,2.635,2.635,0,0,1,16.754,13a2.627,2.627,0,0,1,2.724,2.737A2.637,2.637,0,0,1,16.722,18.478Zm26.035,10.27a7.528,7.528,0,0,0-13.694-4.322v-3.21H23.586V41.757h5.478V30.8a4.108,4.108,0,1,1,8.216,0V41.757h5.478Z" transform="translate(-4.414 -3.414)" fill="#fff"/>
</svg>
