<svg id="icons8-twitter-circled" xmlns="http://www.w3.org/2000/svg" width="47.588" height="47.588" viewBox="0 0 47.588 47.588">
  <path id="Path_5" data-name="Path 5" d="M27.794,4A23.794,23.794,0,1,0,51.588,27.794,23.794,23.794,0,0,0,27.794,4Z" transform="translate(-4 -4)" fill="#313131"/>
  <path id="Path_6" data-name="Path 6" d="M45.12,17.926a15.492,15.492,0,0,1-4.14,1.214c1.4-.834,3.634-2.57,4.14-4.14a19.755,19.755,0,0,1-5.234,1.893A6.6,6.6,0,0,0,34.931,15c-3.754,0-6.371,3.181-6.371,6.9v2.76c-5.52,0-10.9-4.2-14.251-8.28a6.643,6.643,0,0,0-.92,3.391c0,2.51,2.306,5.058,4.132,6.269a12.808,12.808,0,0,1-4.14-1.38v.079c0,3.266,2.292,5.484,5.4,6.1a8.641,8.641,0,0,1-3.919.719c.864,2.67,5.207,4.082,8.181,4.14-2.327,1.8-6.475,2.76-9.66,2.76A10.168,10.168,0,0,1,12,38.428,21.46,21.46,0,0,0,23.04,41.22c12.5,0,19.32-9.547,19.32-18.45,0-.293-.01-1.272-.025-1.559a10.485,10.485,0,0,0,2.785-3.284" transform="translate(-4.331 -4.456)" fill="#fff"/>
</svg>
